<mxfile host="65bd71144e">
    <diagram id="IVvzmpo3YwEcb1zVi3Wd" name="Page-1">
        <mxGraphModel dx="3467" dy="1210" grid="0" gridSize="10" guides="1" tooltips="1" connect="1" arrows="1" fold="1" page="0" pageScale="1" pageWidth="1100" pageHeight="850" background="light-dark(#FFC7C7,#3B3B3B)" math="0" shadow="1" adaptiveColors="auto">
            <root>
                <mxCell id="0"/>
                <mxCell id="1" parent="0"/>
                <mxCell id="108" value="" style="rounded=0;whiteSpace=wrap;html=1;fillColor=#0050ef;fontColor=#ffffff;strokeColor=#001DBC;" parent="1" vertex="1">
                    <mxGeometry x="-1292" y="1331" width="1036" height="650" as="geometry"/>
                </mxCell>
                <mxCell id="60" style="edgeStyle=none;html=1;exitX=1;exitY=0.75;exitDx=0;exitDy=0;entryX=0;entryY=0.75;entryDx=0;entryDy=0;rounded=1;sketch=1;curveFitting=1;jiggle=2;" parent="1" source="2" target="6" edge="1">
                    <mxGeometry relative="1" as="geometry"/>
                </mxCell>
                <object label="&lt;font face=&quot;Verdana&quot;&gt;Client&lt;/font&gt;" Client="Client&#xa;" id="2">
                    <mxCell style="whiteSpace=wrap;html=1;sketch=1;curveFitting=1;jiggle=2;rounded=1;gradientColor=none;verticalAlign=middle;fontSize=23;" parent="1" vertex="1">
                        <mxGeometry x="-999" y="604" width="170" height="60" as="geometry"/>
                    </mxCell>
                </object>
                <mxCell id="12" value="" style="edgeStyle=none;rounded=1;html=1;sketch=1;curveFitting=1;jiggle=2;" parent="1" source="20" target="11" edge="1">
                    <mxGeometry relative="1" as="geometry"/>
                </mxCell>
                <mxCell id="29" style="edgeStyle=none;rounded=1;html=1;exitX=0.5;exitY=0;exitDx=0;exitDy=0;entryX=0.5;entryY=1;entryDx=0;entryDy=0;sketch=1;curveFitting=1;jiggle=2;" parent="1" source="6" target="25" edge="1">
                    <mxGeometry relative="1" as="geometry"/>
                </mxCell>
                <mxCell id="58" style="edgeStyle=none;html=1;exitX=0;exitY=0.25;exitDx=0;exitDy=0;rounded=1;sketch=1;curveFitting=1;jiggle=2;" parent="1" source="6" target="2" edge="1">
                    <mxGeometry relative="1" as="geometry">
                        <Array as="points">
                            <mxPoint x="-745" y="602"/>
                        </Array>
                    </mxGeometry>
                </mxCell>
                <object label="SupaBase&lt;div&gt;Backend/&lt;/div&gt;&lt;div&gt;Authorization/&lt;/div&gt;&lt;div&gt;Authentication&lt;/div&gt;" Client="Client&#xa;" id="6">
                    <mxCell style="whiteSpace=wrap;html=1;sketch=1;curveFitting=1;jiggle=2;rounded=1;fontSize=23;" parent="1" vertex="1">
                        <mxGeometry x="-659" y="549" width="235" height="160" as="geometry"/>
                    </mxCell>
                </object>
                <mxCell id="8" style="edgeStyle=none;rounded=1;html=1;exitX=1;exitY=0.5;exitDx=0;exitDy=0;fontSize=23;sketch=1;curveFitting=1;jiggle=2;" parent="1" edge="1">
                    <mxGeometry relative="1" as="geometry">
                        <mxPoint x="-219" y="764" as="sourcePoint"/>
                        <mxPoint x="-219" y="772" as="targetPoint"/>
                    </mxGeometry>
                </mxCell>
                <mxCell id="14" style="edgeStyle=none;rounded=1;html=1;sketch=1;curveFitting=1;jiggle=2;" parent="1" source="11" target="2" edge="1">
                    <mxGeometry relative="1" as="geometry">
                        <mxPoint x="-716.9200000000001" y="672.98" as="targetPoint"/>
                        <mxPoint x="-64" y="714" as="sourcePoint"/>
                        <Array as="points">
                            <mxPoint x="-69" y="809"/>
                            <mxPoint x="-919" y="814"/>
                        </Array>
                    </mxGeometry>
                </mxCell>
                <mxCell id="11" value="AWS S3 Bucket" style="rounded=1;whiteSpace=wrap;html=1;fontSize=23;sketch=1;curveFitting=1;jiggle=2;" parent="1" vertex="1">
                    <mxGeometry x="-202" y="584" width="250" height="100" as="geometry"/>
                </mxCell>
                <mxCell id="16" value="&lt;font style=&quot;font-size: 24px;&quot;&gt;Request to Add data&lt;/font&gt;" style="text;strokeColor=none;align=center;fillColor=none;html=1;verticalAlign=middle;whiteSpace=wrap;rounded=1;sketch=1;curveFitting=1;jiggle=2;" parent="1" vertex="1">
                    <mxGeometry x="-948" y="484" width="240" height="40" as="geometry"/>
                </mxCell>
                <mxCell id="22" value="&lt;h2&gt;&lt;font style=&quot;font-size: 18px;&quot;&gt;Confirmation&lt;/font&gt;&lt;/h2&gt;&lt;div&gt;&lt;font size=&quot;3&quot;&gt;Message&lt;/font&gt;&lt;/div&gt;" style="text;html=1;align=center;verticalAlign=middle;resizable=0;points=[];autosize=1;strokeColor=none;fillColor=none;rounded=1;sketch=1;curveFitting=1;jiggle=2;" parent="1" vertex="1">
                    <mxGeometry x="-611.5" y="764" width="140" height="80" as="geometry"/>
                </mxCell>
                <object label="&lt;h2&gt;&lt;font style=&quot;font-size: 24px;&quot;&gt;Store MetaData to Supabase Postgresql&lt;/font&gt;&lt;/h2&gt;" Client="Client&#xa;" id="25">
                    <mxCell style="whiteSpace=wrap;html=1;sketch=1;curveFitting=1;jiggle=2;rounded=1;" parent="1" vertex="1">
                        <mxGeometry x="-736.5" y="259" width="390" height="100" as="geometry"/>
                    </mxCell>
                </object>
                <mxCell id="30" value="" style="edgeStyle=none;rounded=1;html=1;fontSize=23;sketch=1;curveFitting=1;jiggle=2;" parent="1" source="38" target="34" edge="1">
                    <mxGeometry relative="1" as="geometry"/>
                </mxCell>
                <object label="&lt;font face=&quot;Verdana&quot;&gt;Client&lt;/font&gt;" Client="Client&#xa;" id="31">
                    <mxCell style="whiteSpace=wrap;html=1;sketch=1;curveFitting=1;jiggle=2;rounded=1;gradientColor=none;verticalAlign=middle;fontSize=23;" parent="1" vertex="1">
                        <mxGeometry x="-979" y="1073" width="170" height="60" as="geometry"/>
                    </mxCell>
                </object>
                <mxCell id="32" value="" style="edgeStyle=none;rounded=1;html=1;sketch=1;curveFitting=1;jiggle=2;" parent="1" source="40" target="37" edge="1">
                    <mxGeometry relative="1" as="geometry"/>
                </mxCell>
                <object label="SupaBase&lt;div&gt;Backend/&lt;/div&gt;&lt;div&gt;Authorization/&lt;/div&gt;&lt;div&gt;Authentication&lt;/div&gt;" Client="Client&#xa;" id="34">
                    <mxCell style="whiteSpace=wrap;html=1;sketch=1;curveFitting=1;jiggle=2;rounded=1;fontSize=23;" parent="1" vertex="1">
                        <mxGeometry x="-639" y="1023" width="235" height="160" as="geometry"/>
                    </mxCell>
                </object>
                <mxCell id="36" style="edgeStyle=none;rounded=1;html=1;sketch=1;curveFitting=1;jiggle=2;" parent="1" source="37" target="31" edge="1">
                    <mxGeometry relative="1" as="geometry">
                        <mxPoint x="-696.9200000000001" y="1141.98" as="targetPoint"/>
                        <mxPoint x="-44" y="1183" as="sourcePoint"/>
                        <Array as="points">
                            <mxPoint x="-49" y="1278"/>
                            <mxPoint x="-894" y="1278"/>
                        </Array>
                    </mxGeometry>
                </mxCell>
                <mxCell id="37" value="AWS S3 Bucket" style="rounded=1;whiteSpace=wrap;html=1;fontSize=23;sketch=1;curveFitting=1;jiggle=2;" parent="1" vertex="1">
                    <mxGeometry x="-179" y="1053" width="250" height="100" as="geometry"/>
                </mxCell>
                <mxCell id="39" value="&lt;font style=&quot;font-size: 24px;&quot;&gt;Request to View data&lt;/font&gt;" style="text;strokeColor=none;align=center;fillColor=none;html=1;verticalAlign=middle;whiteSpace=wrap;rounded=1;sketch=1;curveFitting=1;jiggle=2;" parent="1" vertex="1">
                    <mxGeometry x="-929" y="983" width="240" height="40" as="geometry"/>
                </mxCell>
                <mxCell id="41" value="&lt;h2&gt;API URL&lt;/h2&gt;" style="text;html=1;align=center;verticalAlign=middle;resizable=0;points=[];autosize=1;strokeColor=none;fillColor=none;rounded=1;sketch=1;curveFitting=1;jiggle=2;" parent="1" vertex="1">
                    <mxGeometry x="-569" y="1233" width="100" height="60" as="geometry"/>
                </mxCell>
                <mxCell id="43" value="" style="edgeStyle=none;rounded=1;html=1;fontSize=23;sketch=1;curveFitting=1;jiggle=2;" parent="1" source="31" target="38" edge="1">
                    <mxGeometry relative="1" as="geometry">
                        <mxPoint x="-809" y="1103" as="sourcePoint"/>
                        <mxPoint x="-639" y="1103" as="targetPoint"/>
                    </mxGeometry>
                </mxCell>
                <mxCell id="38" value="&lt;h2&gt;GET&lt;/h2&gt;&lt;h2&gt;Request&lt;/h2&gt;" style="text;html=1;align=center;verticalAlign=middle;resizable=0;points=[];autosize=1;strokeColor=none;fillColor=none;rounded=1;sketch=1;curveFitting=1;jiggle=2;" parent="1" vertex="1">
                    <mxGeometry x="-779" y="1053" width="90" height="100" as="geometry"/>
                </mxCell>
                <mxCell id="44" value="" style="edgeStyle=none;rounded=1;html=1;sketch=1;curveFitting=1;jiggle=2;" parent="1" source="34" target="40" edge="1">
                    <mxGeometry relative="1" as="geometry">
                        <mxPoint x="-404" y="1103" as="sourcePoint"/>
                        <mxPoint x="-179" y="1103" as="targetPoint"/>
                    </mxGeometry>
                </mxCell>
                <mxCell id="40" value="&lt;h2&gt;&lt;font style=&quot;color: rgb(0, 39, 97);&quot;&gt;&lt;b&gt;GET&lt;/b&gt;&lt;/font&gt;&lt;/h2&gt;&lt;h2&gt;&lt;font style=&quot;color: rgb(0, 39, 97);&quot;&gt;&lt;b&gt;Request&lt;/b&gt;&lt;/font&gt;&lt;/h2&gt;" style="text;html=1;align=center;verticalAlign=middle;resizable=0;points=[];autosize=1;strokeColor=none;fillColor=none;textShadow=1;labelBorderColor=none;labelBackgroundColor=none;rounded=1;sketch=1;curveFitting=1;jiggle=2;" parent="1" vertex="1">
                    <mxGeometry x="-349" y="1053" width="90" height="100" as="geometry"/>
                </mxCell>
                <mxCell id="15" value="&lt;h2&gt;&lt;font style=&quot;color: rgb(0, 39, 97);&quot;&gt;&lt;b&gt;POST&lt;br&gt;&lt;/b&gt;&lt;b&gt;Request&lt;/b&gt;&lt;/font&gt;&lt;/h2&gt;" style="text;html=1;align=center;verticalAlign=middle;resizable=0;points=[];autosize=1;strokeColor=none;fillColor=none;rounded=1;sketch=1;curveFitting=1;jiggle=2;" parent="1" vertex="1">
                    <mxGeometry x="-756" y="648" width="90" height="90" as="geometry"/>
                </mxCell>
                <mxCell id="46" value="" style="edgeStyle=none;rounded=1;html=1;sketch=1;curveFitting=1;jiggle=2;" parent="1" source="6" target="20" edge="1">
                    <mxGeometry relative="1" as="geometry">
                        <mxPoint x="-424" y="630" as="sourcePoint"/>
                        <mxPoint x="-199" y="633" as="targetPoint"/>
                    </mxGeometry>
                </mxCell>
                <mxCell id="20" value="&lt;h2&gt;&lt;font style=&quot;color: rgb(0, 39, 97);&quot;&gt;&lt;b&gt;POST&lt;br&gt;&lt;/b&gt;&lt;b&gt;Request&lt;/b&gt;&lt;/font&gt;&lt;/h2&gt;" style="text;html=1;align=center;verticalAlign=middle;resizable=0;points=[];autosize=1;strokeColor=none;fillColor=none;textShadow=1;labelBorderColor=none;labelBackgroundColor=none;rounded=1;sketch=1;curveFitting=1;jiggle=2;" parent="1" vertex="1">
                    <mxGeometry x="-359" y="589" width="90" height="90" as="geometry"/>
                </mxCell>
                <mxCell id="53" value="&lt;h1 style=&quot;margin-top: 0px;&quot;&gt;Frontend&lt;/h1&gt;&lt;div&gt;1. Next.Js&lt;/div&gt;&lt;div&gt;2. Motion Library&lt;/div&gt;" style="text;html=1;whiteSpace=wrap;overflow=hidden;rounded=1;fillColor=#f0a30a;fontColor=#000000;strokeColor=#BD7000;fontSize=17;textShadow=1;align=center;fontStyle=0;sketch=1;curveFitting=1;jiggle=2;" parent="1" vertex="1">
                    <mxGeometry x="86" y="340" width="180" height="120" as="geometry"/>
                </mxCell>
                <mxCell id="54" value="&lt;h1 style=&quot;margin-top: 0px;&quot;&gt;Backend&lt;/h1&gt;&lt;div&gt;1. SupaBase Authentication&lt;/div&gt;&lt;div&gt;2. Supabase Authorization&lt;/div&gt;&lt;div&gt;3. Connects with the DataBase&lt;/div&gt;" style="text;html=1;whiteSpace=wrap;overflow=hidden;rounded=1;fillColor=#f0a30a;fontColor=#000000;strokeColor=#BD7000;fontSize=17;textShadow=1;align=center;sketch=1;curveFitting=1;jiggle=2;" parent="1" vertex="1">
                    <mxGeometry x="86" y="474" width="275" height="153" as="geometry"/>
                </mxCell>
                <mxCell id="56" value="&lt;h1 style=&quot;margin-top: 0px;&quot;&gt;DataBase&lt;/h1&gt;&lt;div&gt;1. AWS S3&lt;/div&gt;&lt;div&gt;2. SupaBase (for now)&lt;/div&gt;" style="text;html=1;whiteSpace=wrap;overflow=hidden;rounded=1;fillColor=#f0a30a;fontColor=#000000;strokeColor=#BD7000;fontSize=17;textShadow=1;verticalAlign=middle;align=center;sketch=1;curveFitting=1;jiggle=2;" parent="1" vertex="1">
                    <mxGeometry x="86" y="644" width="275" height="153" as="geometry"/>
                </mxCell>
                <mxCell id="62" style="edgeStyle=none;html=1;rounded=1;sketch=1;curveFitting=1;jiggle=2;" parent="1" source="61" edge="1">
                    <mxGeometry relative="1" as="geometry">
                        <mxPoint x="-752.3478260869563" y="816.3478260869567" as="targetPoint"/>
                        <Array as="points">
                            <mxPoint x="-755" y="646"/>
                            <mxPoint x="-743" y="659"/>
                            <mxPoint x="-755" y="669"/>
                        </Array>
                    </mxGeometry>
                </mxCell>
                <mxCell id="61" value="&lt;font face=&quot;Ancizar Sans&quot; style=&quot;font-size: 19px; background-color: light-dark(#ffffff, var(--ge-dark-color, #121212));&quot;&gt;Sends Url to&lt;/font&gt;&lt;div&gt;&lt;font face=&quot;Ancizar Sans&quot; style=&quot;font-size: 19px; background-color: light-dark(#ffffff, var(--ge-dark-color, #121212));&quot;&gt;listen to&lt;/font&gt;&lt;/div&gt;" style="text;html=1;align=center;verticalAlign=middle;resizable=0;points=[];autosize=1;strokeColor=none;fillColor=none;rotation=-10;rounded=1;sketch=1;curveFitting=1;jiggle=2;" parent="1" vertex="1">
                    <mxGeometry x="-813" y="551" width="109" height="58" as="geometry"/>
                </mxCell>
                <object label="TABLE&lt;div&gt;users&lt;br&gt;&lt;/div&gt;&lt;div&gt;1. username&lt;/div&gt;&lt;div&gt;2. pfpPath&lt;/div&gt;" Client="Client&#xa;" id="63">
                    <mxCell style="whiteSpace=wrap;html=1;sketch=1;curveFitting=1;jiggle=2;rounded=1;" parent="1" vertex="1">
                        <mxGeometry x="622" y="545.5" width="160" height="167" as="geometry"/>
                    </mxCell>
                </object>
                <mxCell id="101" style="edgeStyle=none;html=1;entryX=0.889;entryY=0.005;entryDx=0;entryDy=0;entryPerimeter=0;sketch=1;curveFitting=1;jiggle=2;rounded=1;" parent="1" source="64" target="97" edge="1">
                    <mxGeometry relative="1" as="geometry"/>
                </mxCell>
                <mxCell id="105" value="2. Returns the data&lt;div&gt;(likes, comments)&lt;/div&gt;" style="edgeLabel;html=1;align=center;verticalAlign=middle;resizable=0;points=[];sketch=1;curveFitting=1;jiggle=2;rounded=1;" parent="101" vertex="1" connectable="0">
                    <mxGeometry x="0.203" y="3" relative="1" as="geometry">
                        <mxPoint x="-24" y="40" as="offset"/>
                    </mxGeometry>
                </mxCell>
                <object label="TABLE&lt;div&gt;user_uploads&lt;br&gt;&lt;/div&gt;&lt;div&gt;1. username&lt;/div&gt;&lt;div&gt;2. ImagePath&lt;/div&gt;&lt;div&gt;3. Others&lt;/div&gt;" Client="Client&#xa;" id="64">
                    <mxCell style="whiteSpace=wrap;html=1;sketch=1;curveFitting=1;jiggle=2;rounded=1;" parent="1" vertex="1">
                        <mxGeometry x="956" y="545.5" width="145" height="167" as="geometry"/>
                    </mxCell>
                </object>
                <mxCell id="65" style="edgeStyle=none;html=1;sketch=1;curveFitting=1;jiggle=2;rounded=1;" parent="1" source="64" target="63" edge="1">
                    <mxGeometry relative="1" as="geometry"/>
                </mxCell>
                <mxCell id="66" value="Reference&lt;div&gt;Foreign Key&lt;/div&gt;" style="text;html=1;align=center;verticalAlign=middle;resizable=0;points=[];autosize=1;strokeColor=none;fillColor=none;sketch=1;curveFitting=1;jiggle=2;rounded=1;" parent="1" vertex="1">
                    <mxGeometry x="837" y="590" width="83" height="41" as="geometry"/>
                </mxCell>
                <object label="Storage&lt;div&gt;1. tech&lt;/div&gt;&lt;div&gt;{..Others}&lt;/div&gt;&lt;div&gt;2. pfp&lt;/div&gt;" Client="Client&#xa;" id="96">
                    <mxCell style="whiteSpace=wrap;html=1;sketch=1;curveFitting=1;jiggle=2;rounded=1;" parent="1" vertex="1">
                        <mxGeometry x="1097" y="805" width="145" height="167" as="geometry"/>
                    </mxCell>
                </object>
                <mxCell id="103" style="edgeStyle=none;html=1;exitX=0.75;exitY=0;exitDx=0;exitDy=0;sketch=1;curveFitting=1;jiggle=2;rounded=1;" parent="1" source="97" target="64" edge="1">
                    <mxGeometry relative="1" as="geometry"/>
                </mxCell>
                <mxCell id="104" value="1. GET&lt;div&gt;Request&lt;/div&gt;" style="edgeLabel;html=1;align=center;verticalAlign=middle;resizable=0;points=[];sketch=1;curveFitting=1;jiggle=2;rounded=1;" parent="103" vertex="1" connectable="0">
                    <mxGeometry x="-0.1363" y="2" relative="1" as="geometry">
                        <mxPoint x="1" as="offset"/>
                    </mxGeometry>
                </mxCell>
                <mxCell id="106" style="edgeStyle=none;html=1;exitX=1;exitY=0;exitDx=0;exitDy=0;entryX=0;entryY=1;entryDx=0;entryDy=0;sketch=1;curveFitting=1;jiggle=2;rounded=1;" parent="1" source="97" target="96" edge="1">
                    <mxGeometry relative="1" as="geometry"/>
                </mxCell>
                <mxCell id="107" value="3.GETs the photos using&lt;div&gt;the provided link&lt;/div&gt;" style="edgeLabel;html=1;align=center;verticalAlign=middle;resizable=0;points=[];sketch=1;curveFitting=1;jiggle=2;rounded=1;" parent="106" vertex="1" connectable="0">
                    <mxGeometry x="-0.1064" relative="1" as="geometry">
                        <mxPoint x="1" as="offset"/>
                    </mxGeometry>
                </mxCell>
                <mxCell id="97" value="&lt;font style=&quot;font-size: 27px;&quot;&gt;Screen&lt;/font&gt;" style="rounded=1;whiteSpace=wrap;html=1;sketch=1;curveFitting=1;jiggle=2;" parent="1" vertex="1">
                    <mxGeometry x="358" y="1047" width="655" height="444" as="geometry"/>
                </mxCell>
                <mxCell id="102" value="&lt;ol&gt;&lt;li&gt;&lt;b&gt;&lt;font style=&quot;font-size: 19px;&quot;&gt;&amp;nbsp;get the posts links based on the users choiceof categories&lt;/font&gt;&lt;/b&gt;&lt;/li&gt;&lt;li&gt;&lt;span style=&quot;font-size: 19px;&quot;&gt;&lt;b&gt;&amp;nbsp;get the actual photos using the given links&lt;/b&gt;&lt;/span&gt;&lt;/li&gt;&lt;li&gt;&lt;span style=&quot;font-size: 19px;&quot;&gt;&lt;b&gt;get the photos of the users from the &#39;users&#39; table&lt;/b&gt;&lt;/span&gt;&lt;/li&gt;&lt;/ol&gt;" style="text;html=1;align=left;verticalAlign=middle;resizable=0;points=[];autosize=1;strokeColor=none;fillColor=none;sketch=1;curveFitting=1;jiggle=2;rounded=1;" parent="1" vertex="1">
                    <mxGeometry x="274" y="848" width="592" height="122" as="geometry"/>
                </mxCell>
                <object label="Table&lt;div&gt;likes&lt;/div&gt;&lt;div&gt;1. post_id&lt;/div&gt;&lt;div&gt;2. user_id&lt;/div&gt;&lt;div&gt;3. own id (primary)&lt;/div&gt;" Client="Client&#xa;" id="109">
                    <mxCell style="whiteSpace=wrap;html=1;sketch=1;curveFitting=1;jiggle=2;rounded=1;" parent="1" vertex="1">
                        <mxGeometry x="-860" y="1528" width="115" height="96" as="geometry"/>
                    </mxCell>
                </object>
                <object label="Table&lt;div&gt;user_uploads&lt;/div&gt;&lt;div style=&quot;text-align: left;&quot;&gt;1. user_id&lt;/div&gt;&lt;div style=&quot;text-align: left;&quot;&gt;2. post_id&lt;/div&gt;&lt;div style=&quot;text-align: left;&quot;&gt;3. post_likes&lt;/div&gt;&lt;div style=&quot;text-align: left;&quot;&gt;4. post_comments&lt;/div&gt;&lt;div style=&quot;text-align: left;&quot;&gt;5. others...&lt;/div&gt;" Client="Client&#xa;" id="111">
                    <mxCell style="whiteSpace=wrap;html=1;sketch=1;curveFitting=1;jiggle=2;rounded=1;" parent="1" vertex="1">
                        <mxGeometry x="-552" y="1438" width="119" height="132" as="geometry"/>
                    </mxCell>
                </object>
                <object label="Likes Logic" Client="Client&#xa;" id="112">
                    <mxCell style="whiteSpace=wrap;html=1;sketch=1;curveFitting=1;jiggle=2;rounded=1;" parent="1" vertex="1">
                        <mxGeometry x="-905" y="1376" width="160" height="60" as="geometry"/>
                    </mxCell>
                </object>
                <mxCell id="115" style="edgeStyle=none;html=1;exitX=1;exitY=0.5;exitDx=0;exitDy=0;entryX=0;entryY=0.5;entryDx=0;entryDy=0;" parent="1" source="113" target="114" edge="1">
                    <mxGeometry relative="1" as="geometry"/>
                </mxCell>
                <mxCell id="116" value="1. post like" style="edgeLabel;html=1;align=center;verticalAlign=middle;resizable=0;points=[];" parent="115" vertex="1" connectable="0">
                    <mxGeometry x="-0.1734" relative="1" as="geometry">
                        <mxPoint x="34" y="-18" as="offset"/>
                    </mxGeometry>
                </mxCell>
                <object label="USER" Client="Client&#xa;" id="113">
                    <mxCell style="whiteSpace=wrap;html=1;sketch=1;curveFitting=1;jiggle=2;rounded=1;" parent="1" vertex="1">
                        <mxGeometry x="-1064" y="1793" width="105" height="38" as="geometry"/>
                    </mxCell>
                </object>
                <mxCell id="119" style="edgeStyle=none;html=1;exitX=0.5;exitY=0;exitDx=0;exitDy=0;entryX=0.5;entryY=1;entryDx=0;entryDy=0;" parent="1" source="114" target="111" edge="1">
                    <mxGeometry relative="1" as="geometry"/>
                </mxCell>
                <mxCell id="120" value="3. post_likes += 1" style="edgeLabel;html=1;align=center;verticalAlign=middle;resizable=0;points=[];" parent="119" vertex="1" connectable="0">
                    <mxGeometry x="-0.0603" y="1" relative="1" as="geometry">
                        <mxPoint as="offset"/>
                    </mxGeometry>
                </mxCell>
                <object label="likes a post&lt;div&gt;with id: something&lt;/div&gt;" Client="Client&#xa;" id="114">
                    <mxCell style="whiteSpace=wrap;html=1;sketch=1;curveFitting=1;jiggle=2;rounded=1;arcSize=14;" parent="1" vertex="1">
                        <mxGeometry x="-556" y="1771" width="152" height="139" as="geometry"/>
                    </mxCell>
                </object>
                <mxCell id="117" style="edgeStyle=none;html=1;exitX=0;exitY=0.25;exitDx=0;exitDy=0;entryX=0.474;entryY=0.993;entryDx=0;entryDy=0;entryPerimeter=0;" parent="1" source="114" target="109" edge="1">
                    <mxGeometry relative="1" as="geometry"/>
                </mxCell>
                <mxCell id="118" value="2. Adds&lt;div&gt;{USER liked post {id: something}}&lt;/div&gt;" style="edgeLabel;html=1;align=center;verticalAlign=middle;resizable=0;points=[];" parent="117" vertex="1" connectable="0">
                    <mxGeometry x="0.0083" y="-2" relative="1" as="geometry">
                        <mxPoint as="offset"/>
                    </mxGeometry>
                </mxCell>
                <mxCell id="124" style="edgeStyle=none;html=1;exitX=0.5;exitY=1;exitDx=0;exitDy=0;entryX=0;entryY=0.5;entryDx=0;entryDy=0;elbow=vertical;" parent="1" source="113" target="113" edge="1">
                    <mxGeometry relative="1" as="geometry">
                        <Array as="points">
                            <mxPoint x="-1047" y="1873"/>
                            <mxPoint x="-1098" y="1849"/>
                        </Array>
                    </mxGeometry>
                </mxCell>
                <mxCell id="125" value="Likes + 1 on his local Screen" style="edgeLabel;html=1;align=center;verticalAlign=middle;resizable=0;points=[];" parent="124" vertex="1" connectable="0">
                    <mxGeometry x="0.4124" relative="1" as="geometry">
                        <mxPoint x="-9" y="13" as="offset"/>
                    </mxGeometry>
                </mxCell>
                <mxCell id="126" value="" style="endArrow=classic;html=1;exitX=1;exitY=0.5;exitDx=0;exitDy=0;entryX=0;entryY=0.5;entryDx=0;entryDy=0;" parent="1" source="113" target="114" edge="1">
                    <mxGeometry relative="1" as="geometry">
                        <mxPoint x="-917" y="1872" as="sourcePoint"/>
                        <mxPoint x="-817" y="1872" as="targetPoint"/>
                    </mxGeometry>
                </mxCell>
                <mxCell id="127" value="" style="shape=message;html=1;outlineConnect=0;" parent="126" vertex="1">
                    <mxGeometry width="20" height="14" relative="1" as="geometry">
                        <mxPoint x="-10" y="-7" as="offset"/>
                    </mxGeometry>
                </mxCell>
            </root>
        </mxGraphModel>
    </diagram>
</mxfile>